<?xml version="1.0" encoding="utf-8"?>
<!-- Generator: Adobe Illustrator 16.0.0, SVG Export Plug-In . SVG Version: 6.00 Build 0)  -->
<!DOCTYPE svg PUBLIC "-//W3C//DTD SVG 1.1//EN" "http://www.w3.org/Graphics/SVG/1.1/DTD/svg11.dtd">
<svg version="1.1" id="Layer_1" xmlns="http://www.w3.org/2000/svg" xmlns:xlink="http://www.w3.org/1999/xlink" x="0px" y="0px"
	 width="100px" height="100px" viewBox="0 0 100 100" enable-background="new 0 0 100 100" xml:space="preserve">
<g>
	<g>
		<g>
			<path fill="#FFFFFF" d="M70.156,53.538c-6.568,0-12.752-9.708-12.752-17.233c0-7.031,5.721-12.751,12.752-12.751
				c7.029,0,12.75,5.72,12.75,12.751C82.906,43.83,76.725,53.538,70.156,53.538z"/>
			<path fill="#FFFFFF" d="M70.156,25.054c6.203,0,11.25,5.047,11.25,11.251c0,6.724-5.562,15.733-11.25,15.733
				c-5.688,0-11.252-9.009-11.252-15.733C58.904,30.102,63.952,25.054,70.156,25.054 M70.156,22.054
				c-7.871,0-14.252,6.38-14.252,14.251c0,7.871,6.382,18.733,14.252,18.733c7.869,0,14.25-10.862,14.25-18.733
				C84.406,28.435,78.027,22.054,70.156,22.054L70.156,22.054z"/>
		</g>
		<g>
			<path fill="#FFFFFF" d="M70.154,79.654c-13.483,0-24.875-5.313-24.875-11.604c0-4.42,5.444-11.363,13.657-15.08
				c3.313,3.866,7.265,5.98,11.221,5.98c3.955,0,7.904-2.114,11.22-5.98c8.212,3.717,13.655,10.66,13.653,15.079
				C95.029,74.341,83.639,79.654,70.154,79.654z"/>
			<path fill="#FFFFFF" d="M81.744,54.805c7.611,3.781,11.785,10.03,11.785,13.247c0,2.269-2.209,4.665-6.061,6.578
				c-4.574,2.272-10.725,3.524-17.314,3.524S57.415,76.902,52.84,74.63c-3.851-1.913-6.06-4.312-6.06-6.578
				c0-3.216,4.175-9.465,11.789-13.247c3.445,3.659,7.494,5.647,11.589,5.647C74.251,60.452,78.299,58.464,81.744,54.805
				 M80.93,51.146c-2.877,3.693-6.646,6.306-10.772,6.306c-4.13,0-7.897-2.611-10.774-6.306
				C50.188,54.902,43.78,62.725,43.78,68.052c0,7.236,11.809,13.103,26.375,13.103c14.566,0,26.375-5.865,26.375-13.103
				C96.531,62.725,90.124,54.902,80.93,51.146L80.93,51.146z"/>
		</g>
	</g>
	<g>
		<g>
			<path fill="#FFFFFF" d="M34.746,47.111c-3.941,0-8.07-2.68-11.327-7.352c-3.042-4.364-4.932-9.917-4.932-14.492
				c0-8.965,7.293-16.258,16.258-16.258c8.964,0,16.258,7.293,16.258,16.258c0,4.575-1.89,10.128-4.932,14.492
				C42.816,44.431,38.688,47.111,34.746,47.111z"/>
			<path fill="#FFFFFF" d="M34.746,10.509c8.138,0,14.758,6.621,14.758,14.758c0,4.285-1.786,9.509-4.662,13.634
				c-2.972,4.264-6.652,6.709-10.096,6.709c-3.444,0-7.124-2.445-10.096-6.709c-2.875-4.125-4.662-9.35-4.662-13.634
				C19.988,17.129,26.608,10.509,34.746,10.509 M34.746,7.509c-9.808,0-17.758,7.95-17.758,17.758s7.95,23.344,17.758,23.344
				s17.758-13.536,17.758-23.344S44.554,7.509,34.746,7.509L34.746,7.509z"/>
		</g>
		<g>
			<g>
				<path fill="#FFFFFF" d="M34.746,79.654c-17.003,0-31.367-6.79-31.367-14.826c0-5.671,6.983-14.582,17.488-19.242
					c4.094,4.868,8.988,7.533,13.879,7.533c4.892,0,9.786-2.665,13.879-7.534c2.223,0.985,4.346,2.187,6.341,3.587
					c-9.023,4.539-15.793,12.582-15.793,19.104c0,3.834,2.517,7.477,7.031,10.33C42.568,79.296,38.673,79.654,34.746,79.654z"/>
				<path fill="#FFFFFF" d="M49.016,47.418c1.037,0.498,2.048,1.046,3.034,1.642c-8.351,4.937-14.377,12.737-14.377,19.215
					c0,3.408,1.687,6.648,4.789,9.4c-2.509,0.315-5.104,0.479-7.715,0.479c-17.601,0-29.867-7.023-29.867-13.326
					c0-4.914,6.311-12.93,15.599-17.409c4.23,4.662,9.229,7.2,14.269,7.2C39.786,54.619,44.786,52.08,49.016,47.418 M48.171,43.762
					c-3.583,4.603-8.28,7.857-13.425,7.857c-5.146,0-9.841-3.254-13.425-7.857C9.864,48.441,1.879,58.188,1.879,64.828
					c0,9.018,14.715,16.326,32.867,16.326c5.691,0,11.043-0.719,15.711-1.983c-6.005-2.681-9.784-6.567-9.784-10.896
					c0-5.909,7.056-14.559,17.204-18.792C55.085,47.241,51.805,45.246,48.171,43.762L48.171,43.762z"/>
			</g>
		</g>
	</g>
</g>
</svg>
